<svg width="245" height="107" viewBox="0 0 245 107" fill="none" xmlns="http://www.w3.org/2000/svg">
<rect width="152.575" height="56.1755" rx="16" transform="matrix(-1 0 0 1 152.575 0)" fill="#FFDE25"/>
<path d="M152.625 57.5893C153.261 58.0503 153.928 57.0709 153.59 56.1703L152.601 53.5302C152.155 52.3381 151.032 52.1024 150.378 53.0635C149.725 54.0247 149.917 55.6278 150.759 56.238L152.625 57.5893Z" fill="#FFDE25"/>
<rect width="152.575" height="56.1755" rx="16" transform="matrix(-1 0 0 1 241.575 45)" fill="#E8F1F5"/>
<path d="M241.625 102.589C242.261 103.05 242.928 102.071 242.59 101.17L241.601 98.5302C241.155 97.3381 240.032 97.1024 239.378 98.0635C238.725 99.0247 238.917 100.628 239.759 101.238L241.625 102.589Z" fill="#E8F1F5"/>
</svg>
