<svg width="457" height="192" viewBox="0 0 457 192" fill="none" xmlns="http://www.w3.org/2000/svg">
<g clip-path="url(#clip0_12_138)">
<path d="M71.1657 86.0794C68.9571 78.7264 62.1167 73.9494 55.9152 75.4347C49.7154 76.9217 46.4855 84.0822 48.6958 91.4302C50.9044 98.7998 57.7448 103.579 63.9446 102.092C70.1444 100.605 73.3575 93.4273 71.1657 86.0794Z" fill="#1E1E1E"/>
<path d="M89.1999 81.6623C95.7737 79.9361 99.074 71.235 96.5451 61.8331C94.0179 52.4312 86.6442 46.7341 80.0453 48.2679C73.4715 49.9941 70.1712 58.6952 72.7001 68.0972C75.2323 77.3084 82.5993 83.4035 89.1999 81.6623Z" fill="#1E1E1E"/>
<path d="M128.015 144C137.405 144 143.291 139.566 143.291 132.159C143.111 115.71 119.328 89.6322 102.423 89.6322C85.5239 89.6322 61.7325 115.69 61.7325 132.149C61.5447 139.561 67.2381 144 76.8287 144C85.6212 144 93.6841 142.632 99.7279 139.796C101.339 139.04 100.853 137.482 98.3712 136.043C94.546 133.825 89.4245 131.008 89.4245 131.008C86.8671 129.734 84.9537 127.451 84.1454 124.716L84.033 124.333C82.6713 119.725 84.8481 114.814 89.1763 112.718C91.9819 111.348 95.398 111.408 98.1885 112.927L99.2148 113.484L99.7145 112.479C101.293 109.676 104.07 107.794 107.231 107.407C112.008 106.825 116.508 109.773 117.87 114.381L117.982 114.764C118.79 117.498 118.428 120.451 116.971 122.906C116.971 122.906 110.878 132.407 108.351 135.699C106.929 137.552 106.032 138.835 107.99 139.8C110.045 140.81 120.985 144 128.015 144Z" fill="#1E1E1E"/>
<path d="M149.117 75.4399C142.917 74.1436 136.075 78.7317 133.868 86.0847C131.659 93.4393 134.879 100.605 141.079 102.092C147.279 103.388 154.092 98.8001 156.328 91.4472C158.528 84.0825 155.12 76.9253 149.117 75.4399Z" fill="#1E1E1E"/>
<path d="M110.794 81.6857C117.204 83.4118 124.767 77.3318 127.294 68.1222C129.821 58.9109 126.523 50.0174 119.949 48.2929C113.54 46.5668 105.976 52.6468 103.449 61.8581C100.914 71.0677 104.214 79.9662 110.794 81.6857Z" fill="#1E1E1E"/>
</g>
<path d="M210.083 105.8C210.083 109.586 213.152 112.655 216.938 112.655H222.108C224.932 112.655 227.221 114.944 227.221 117.768V117.768C227.221 120.591 224.932 122.88 222.108 122.88H205C200.582 122.88 197 119.299 197 114.88V75.0414C197 71.4287 199.929 68.5 203.541 68.5V68.5C207.154 68.5 210.083 71.4287 210.083 75.0414V105.8Z" fill="#1E1E1E"/>
<path d="M252.894 123.5C248.711 123.5 244.937 122.596 241.571 120.789C238.255 118.981 235.628 116.399 233.69 113.042C231.803 109.685 230.859 105.761 230.859 101.268C230.859 96.8263 231.829 92.9272 233.767 89.5704C235.705 86.162 238.357 83.554 241.724 81.7465C245.09 79.939 248.864 79.0352 253.047 79.0352C257.229 79.0352 261.004 79.939 264.37 81.7465C267.736 83.554 270.388 86.162 272.327 89.5704C274.265 92.9272 275.234 96.8263 275.234 101.268C275.234 105.709 274.239 109.634 272.25 113.042C270.312 116.399 267.634 118.981 264.217 120.789C260.85 122.596 257.076 123.5 252.894 123.5ZM252.894 112.035C255.393 112.035 257.51 111.106 259.244 109.246C261.029 107.387 261.922 104.728 261.922 101.268C261.922 97.8075 261.055 95.1479 259.32 93.2887C257.637 91.4296 255.546 90.5 253.047 90.5C250.496 90.5 248.38 91.4296 246.697 93.2887C245.013 95.0962 244.172 97.7559 244.172 101.268C244.172 104.728 244.988 107.387 246.62 109.246C248.303 111.106 250.394 112.035 252.894 112.035Z" fill="#1E1E1E"/>
<path d="M323.451 68.5C327.919 68.5 331.048 72.9118 329.571 77.128L316.249 115.154C314.628 119.782 310.26 122.88 305.356 122.88V122.88C300.453 122.88 296.085 119.782 294.464 115.154L281.157 77.1705C279.673 72.9335 282.817 68.5 287.307 68.5V68.5C290.131 68.5 292.634 70.3196 293.505 73.0063L304.408 106.631C304.707 107.552 306.01 107.553 306.31 106.633L317.286 72.9739C318.157 70.3056 320.645 68.5 323.451 68.5V68.5Z" fill="#1E1E1E"/>
<path d="M378.304 100.57C378.304 101.81 378.228 103.101 378.075 104.444H349.545C348.963 104.444 348.5 104.94 348.586 105.516C348.914 107.685 349.715 109.394 350.991 110.641C352.521 112.035 354.383 112.732 356.576 112.732C359.608 112.732 361.782 111.53 363.098 109.124C363.285 108.781 363.636 108.549 364.028 108.549H376.027C376.678 108.549 377.156 109.162 376.957 109.782C376.201 112.134 375.018 114.28 373.408 116.218C371.572 118.491 369.251 120.272 366.446 121.563C363.64 122.854 360.503 123.5 357.035 123.5C352.853 123.5 349.129 122.596 345.865 120.789C342.601 118.981 340.05 116.399 338.214 113.042C336.378 109.685 335.46 105.761 335.46 101.268C335.46 96.7746 336.352 92.8498 338.138 89.493C339.974 86.1362 342.524 83.554 345.788 81.7465C349.053 79.939 352.802 79.0352 357.035 79.0352C361.166 79.0352 364.839 79.9131 368.052 81.669C371.266 83.4249 373.765 85.9296 375.55 89.1831C377.386 92.4366 378.304 96.2324 378.304 100.57ZM362.915 97.0845C364.02 97.0845 364.951 96.1755 364.694 95.1014C364.366 93.734 363.675 92.5876 362.62 91.662C361.09 90.3192 359.177 89.6479 356.882 89.6479C354.689 89.6479 352.827 90.2934 351.297 91.5845C350.324 92.4335 349.594 93.5171 349.107 94.8351C348.683 95.9821 349.643 97.0845 350.866 97.0845H362.915Z" fill="#1E1E1E"/>
<path d="M404.333 111.648C406.911 111.648 409 113.737 409 116.315V117.264C409 120.366 406.486 122.88 403.384 122.88H402.344C397.6 122.88 393.902 121.718 391.25 119.394C388.598 117.019 387.272 113.171 387.272 107.852V91.3981C387.272 90.9877 386.939 90.6549 386.529 90.6549V90.6549C384.066 90.6549 382.069 88.6584 382.069 86.1956V84.1142C382.069 81.6514 384.066 79.6549 386.529 79.6549V79.6549C386.939 79.6549 387.272 79.3222 387.272 78.9117V75.6611C387.272 72.0484 390.2 69.1197 393.813 69.1197V69.1197C397.426 69.1197 400.355 72.0484 400.355 75.6611V78.4308C400.355 79.1069 400.903 79.6549 401.579 79.6549H403.423C406.461 79.6549 408.923 82.1174 408.923 85.1549V85.1549C408.923 88.1925 406.461 90.6549 403.423 90.6549H401.579C400.903 90.6549 400.355 91.203 400.355 91.8791V108.007C400.355 109.298 400.661 110.228 401.273 110.796C401.885 111.364 402.905 111.648 404.333 111.648V111.648Z" fill="#1E1E1E"/>
<defs>
<clipPath id="clip0_12_138">
<rect width="109" height="96" fill="white" transform="translate(48 48)"/>
</clipPath>
</defs>
</svg>
